<svg xmlns="http://www.w3.org/2000/svg" viewBox="0 0 396.93 396.86">
  <path fill="#f16051" d="M356.72 6.85a33.23 33.23 0 0 0-33.35 33.36 33.23 33.23 0 0 0 33.35 33.36 33.23 33.23 0 0 0 33.36-33.36 33.19 33.19 0 0 0-33.36-33.36z"/>
  <path fill="#193651" d="M356.72 80.42a39.82 39.82 0 0 1-39.56-39.56A39.22 39.22 0 0 1 356.72.65a39.81 39.81 0 0 1 39.57 39.56c0 22.24-17.91 40.21-39.57 40.21zm0-67.43a27.42 27.42 0 0 0-27.21 27.22 27.22 27.22 0 1 0 54.43 0A27.43 27.43 0 0 0 356.72 13z"/>
  <path fill="#fdbf5e" d="M40.21 6.85A33.23 33.23 0 0 0 6.86 40.21a33.23 33.23 0 0 0 33.35 33.36 33.23 33.23 0 0 0 33.36-33.36c.65-18.55-14.8-33.36-33.36-33.36z"/>
  <path fill="#193651" d="M40.21 80.42C18.56 80.42.65 62.45.65 40.21A39.81 39.81 0 0 1 40.21.65a39.81 39.81 0 0 1 39.57 39.56 39.23 39.23 0 0 1-39.57 40.21zm0-67.43A27.42 27.42 0 0 0 13 40.21a27.42 27.42 0 0 0 27.21 27.22 27.43 27.43 0 0 0 27.22-27.22A27.06 27.06 0 0 0 40.21 13z"/>
  <path fill="#4fbf9f" d="M356.72 322.72a33.22 33.22 0 0 0-33.35 33.35 33.22 33.22 0 0 0 33.35 33.36 33.23 33.23 0 0 0 33.36-33.36 33.6 33.6 0 0 0-33.36-33.35z"/>
  <path fill="#193651" d="M356.72 396.28a39.56 39.56 0 1 1 39.57-39.56 39.81 39.81 0 0 1-39.57 39.56zm0-67.36a27.22 27.22 0 1 0 27.22 27.22 27.42 27.42 0 0 0-27.22-27.22z"/>
  <path fill="#d3d7da" d="M40.21 322.72a33.22 33.22 0 0 0-33.35 33.35 33.22 33.22 0 0 0 33.35 33.36 33.23 33.23 0 0 0 33.36-33.36c.65-17.9-14.8-33.35-33.36-33.35z"/>
  <path fill="#193651" d="M40.21 396.28a39.56 39.56 0 1 1 0-79.12 39.81 39.81 0 0 1 39.57 39.56c.64 21.66-17.33 39.56-39.57 39.56zm0-67.36A27.42 27.42 0 0 0 13 356.14c0 15.45 12.34 27.8 27.21 27.8a27.43 27.43 0 0 0 27.22-27.22c.58-15.45-11.78-27.8-27.22-27.8z"/>
  <circle cx="198.46" cy="198.46" r="113.78" fill="#fff"/>
  <g fill="#193651">
    <path d="M198.47 318.38a119.92 119.92 0 1 1 119.92-119.92 120 120 0 0 1-119.92 119.92zm0-227.49a107.58 107.58 0 1 0 107.57 107.57A107.65 107.65 0 0 0 198.47 90.89zM137.89 4.33L126.77 0l-11.76 32.19 32.12 11.12 4.34-11.76-20.37-6.79 6.79-20.43zM364.74 115.65l-11.12 32.13 11.76 3.69 6.79-20.37 20.43 7.37 4.33-11.7-32.19-11.12zM210.23 379l1.23 12.35a88 88 0 0 1 12.35-1.23l-1.88-12.35c-3.68.61-8.01.61-11.7 1.23zM234.35 374.63L236.8 387a54.24 54.24 0 0 0 13-3.68l-3.69-11.77a73.89 73.89 0 0 1-11.76 3.08zM186.12 392h12.35v-12.4H186.7zM161.36 388.85c3.69.64 8 1.23 12.35 1.87l1.23-12.34c-3.69-.65-8-1.23-11.77-1.88zM111.91 374a95.38 95.38 0 0 0 11.74 5l4.33-11.76a80.17 80.17 0 0 1-11.12-4.33zM136.02 383.29c4.33 1.23 8 1.87 12.35 3.1l3.1-11.76a69.77 69.77 0 0 1-11.77-3.11zM245.47 365.38l12.09 4 4 10.8c.52-.2 1-.39 1.62-.59l-4.72 12.93 11.77 4.33 11.11-32.12-31.54-11.12zM186.12 18.55l-1.23-12.34a100.12 100.12 0 0 0-12.35 1.22l1.88 12.35a88.28 88.28 0 0 1 11.7-1.23zM260.92 14.22c-4.33-1.23-8-1.87-12.35-3.1l-3.1 11.76A69.65 69.65 0 0 1 257.23 26zM236.16 8.08c-3.69-.65-8-1.23-12.35-1.87l-1.23 12.34c3.69.65 8 1.23 11.77 1.88zM162.59 22.3L160.13 10a94.4 94.4 0 0 0-12.34 3.1l3.1 11.76a85.27 85.27 0 0 1 11.7-2.56zM211.46 5.62h-13V18h11.76zM268.35 29.67A79.21 79.21 0 0 1 279.47 34l5-11.12A88.43 88.43 0 0 0 272.65 18zM391.37 185.47a98.15 98.15 0 0 0-1.23-12.35L377.8 175c.64 3.68.64 8 1.23 11.76zM371.59 257.16l11.77 3.69c1.23-3.69 1.87-8 3.1-12.35l-11.81-3.1a65.68 65.68 0 0 1-3.06 11.76zM362.93 280.05l11.12 4.95c1.87-4.33 3.1-8 5-11.76l-11.77-4.34a90.32 90.32 0 0 1-4.35 11.15zM391.37 198.46h-12.34v11.77l12.34.65a14.39 14.39 0 0 0 0-7.44zM372.17 150.88a85.86 85.86 0 0 1 3.11 11.77l11.76-3.1a94.54 94.54 0 0 0-3.1-12.35zM376.5 234.34l12.35 1.88c.65-4.33 1.23-8.66 1.88-12.35l-12.35-1.23c-.65 3.62-1.23 7.95-1.88 11.7zM25.41 139.77l-11.76-3.69c-1.22 4.33-1.87 8-3.1 12.35l11.77 3.1c1.21-4.39 2.44-8.08 3.09-11.76zM34.01 117.46l-11.12-5a85.86 85.86 0 0 0-4.91 11.77l11.76 4.33c1.23-3.66 3.04-7.35 4.27-11.1zM25.41 246a83.91 83.91 0 0 1-3.1-11.76l-12.35 2.5a96 96 0 0 0 3.1 12.34zM17.33 194.13v-7.43l-12.35-.65v13l12.35-.65zM20.43 163.23l-12.35-1.87c-.64 3.68-1.22 8-1.87 12.35l12.35 1.22c.64-4.26.64-8.01 1.87-11.7zM6.21 212a99.87 99.87 0 0 0 1.23 12.35l12.35-1.88c-.65-3.68-.65-8-1.23-11.76zM24.76 265.83l-20.43-6.79L0 270.8l32.19 11.12 11.12-32.13-11.76-4.33-6.79 20.37z"/>
  </g>
  <path fill="#d3d7da" d="M170.65 246.69v13h55v-12.35c0-16.1 4.92-32.13 14.87-44.54a53.34 53.34 0 0 0 11.77-33.36c0-31.55-27.8-57.47-60-53.79-24.76 2.46-45.13 22.89-47.58 48.23-1.23 14.22 2.45 27.8 10.53 38.33a72.19 72.19 0 0 1 15.41 44.48z"/>
  <path fill="#fdbf5e" d="M252.25 173.12v-3.68c0-31.55-27.79-57.47-60-53.79-24.76 2.46-45.12 22.89-47.58 48.23a22.47 22.47 0 0 0 0 9.24z"/>
  <path fill="#2ea2db" d="M204.03 281.92h-11.77a16.64 16.64 0 0 1-16.68-16.68v-5.56h44.48v5.56c.65 9.25-6.72 16.68-16.03 16.68z"/>
</svg>
