<svg xmlns="http://www.w3.org/2000/svg" viewBox="0 0 396.93 396.86">
  <title>offer-3</title>
  <path
    d="M356.07,6.85h0a33.23,33.23,0,0,0-33.35,33.36h0a33.23,33.23,0,0,0,33.35,33.36h0a33.23,33.23,0,0,0,33.36-33.36h0A33.19,33.19,0,0,0,356.07,6.85Z"
    transform="translate(0.65)" fill="#f16051"/>
  <path
    d="M356.07,80.42a39.82,39.82,0,0,1-39.56-39.56A39.22,39.22,0,0,1,356.07.65a39.81,39.81,0,0,1,39.57,39.56C395.64,62.45,377.73,80.42,356.07,80.42Zm0-67.43a27.42,27.42,0,0,0-27.21,27.22,27.22,27.22,0,1,0,54.43,0A27.43,27.43,0,0,0,356.07,13Z"
    transform="translate(0.65)" fill="#193651"/>
  <path
    d="M39.56,6.85h0A33.23,33.23,0,0,0,6.21,40.21h0A33.23,33.23,0,0,0,39.56,73.57h0A33.23,33.23,0,0,0,72.92,40.21h0C73.57,21.66,58.12,6.85,39.56,6.85Z"
    transform="translate(0.65)" fill="#fdbf5e"/>
  <path
    d="M39.56,80.42C17.91,80.42,0,62.45,0,40.21A39.81,39.81,0,0,1,39.56.65,39.81,39.81,0,0,1,79.13,40.21,39.23,39.23,0,0,1,39.56,80.42Zm0-67.43A27.42,27.42,0,0,0,12.35,40.21,27.42,27.42,0,0,0,39.56,67.43,27.43,27.43,0,0,0,66.78,40.21,27.06,27.06,0,0,0,39.56,13Z"
    transform="translate(0.65)" fill="#193651"/>
  <path
    d="M356.07,322.72h0a33.22,33.22,0,0,0-33.35,33.35h0a33.22,33.22,0,0,0,33.35,33.36h0a33.23,33.23,0,0,0,33.36-33.36h0A33.6,33.6,0,0,0,356.07,322.72Z"
    transform="translate(0.65)" fill="#4fbf9f"/>
  <path
    d="M356.07,396.28a39.56,39.56,0,1,1,39.57-39.56A39.81,39.81,0,0,1,356.07,396.28Zm0-67.36a27.22,27.22,0,1,0,27.22,27.22A27.42,27.42,0,0,0,356.07,328.92Z"
    transform="translate(0.65)" fill="#193651"/>
  <path
    d="M39.56,322.72h0A33.22,33.22,0,0,0,6.21,356.07h0a33.22,33.22,0,0,0,33.35,33.36h0a33.23,33.23,0,0,0,33.36-33.36h0C73.57,338.17,58.12,322.72,39.56,322.72Z"
    transform="translate(0.65)" fill="#d3d7da"/>
  <path
    d="M39.56,396.28a39.56,39.56,0,1,1,0-79.12,39.81,39.81,0,0,1,39.57,39.56C79.77,378.38,61.8,396.28,39.56,396.28Zm0-67.36a27.42,27.42,0,0,0-27.21,27.22c0,15.45,12.34,27.8,27.21,27.8a27.43,27.43,0,0,0,27.22-27.22C67.36,341.27,55,328.92,39.56,328.92Z"
    transform="translate(0.65)" fill="#193651"/>
  <circle cx="198.46" cy="198.46" r="113.78" fill="#fff"/>
  <g>
    <path
      d="M197.82,318.38A119.92,119.92,0,1,1,317.74,198.46,120,120,0,0,1,197.82,318.38Zm0-227.49A107.58,107.58,0,1,0,305.39,198.46,107.65,107.65,0,0,0,197.82,90.89Z"
      transform="translate(0.65)" fill="#193651"/>
    <polygon points="137.89 4.33 126.77 0 115.01 32.19 147.13 43.31 151.47 31.55 131.1 24.76 137.89 4.33"
             fill="#193651"/>
    <polygon points="364.74 115.65 353.62 147.78 365.38 151.47 372.17 131.1 392.6 138.47 396.93 126.77 364.74 115.65"
             fill="#193651"/>
    <path d="M209.58,379l1.23,12.35a88,88,0,0,1,12.35-1.23l-1.88-12.35C217.6,378.38,213.27,378.38,209.58,379Z"
          transform="translate(0.65)" fill="#193651"/>
    <path d="M233.7,374.63,236.15,387a54.24,54.24,0,0,0,13-3.68l-3.69-11.77A73.89,73.89,0,0,1,233.7,374.63Z"
          transform="translate(0.65)" fill="#193651"/>
    <path d="M185.47,392h12.35V379.6H186.05Z" transform="translate(0.65)" fill="#193651"/>
    <path d="M160.71,388.85c3.69.64,8,1.23,12.35,1.87l1.23-12.34c-3.69-.65-8-1.23-11.77-1.88Z"
          transform="translate(0.65)" fill="#193651"/>
    <path d="M111.26,374A95.38,95.38,0,0,0,123,379l4.33-11.76a80.17,80.17,0,0,1-11.12-4.33Z" transform="translate(0.65)"
          fill="#193651"/>
    <path d="M135.37,383.29c4.33,1.23,8,1.87,12.35,3.1l3.1-11.76a69.77,69.77,0,0,1-11.77-3.11Z"
          transform="translate(0.65)" fill="#193651"/>
    <path d="M244.82,365.38l12.09,4,4,10.8c.52-.2,1-.39,1.62-.59l-4.72,12.93,11.77,4.33,11.11-32.12-31.54-11.12Z"
          transform="translate(0.65)" fill="#193651"/>
    <path d="M185.47,18.55,184.24,6.21a100.12,100.12,0,0,0-12.35,1.22l1.88,12.35A88.28,88.28,0,0,1,185.47,18.55Z"
          transform="translate(0.65)" fill="#193651"/>
    <path d="M260.27,14.22c-4.33-1.23-8-1.87-12.35-3.1l-3.1,11.76A69.65,69.65,0,0,1,256.58,26Z"
          transform="translate(0.65)" fill="#193651"/>
    <path d="M235.51,8.08c-3.69-.65-8-1.23-12.35-1.87l-1.23,12.34c3.69.65,8,1.23,11.77,1.88Z"
          transform="translate(0.65)" fill="#193651"/>
    <path d="M161.94,22.3,159.48,10a94.4,94.4,0,0,0-12.34,3.1l3.1,11.76A85.27,85.27,0,0,1,161.94,22.3Z"
          transform="translate(0.65)" fill="#193651"/>
    <path d="M210.81,5.62h-13V18h11.76Z" transform="translate(0.65)" fill="#193651"/>
    <path d="M267.7,29.67A79.21,79.21,0,0,1,278.82,34l5-11.12A88.43,88.43,0,0,0,272,18Z" transform="translate(0.65)"
          fill="#193651"/>
    <path d="M390.72,185.47a98.15,98.15,0,0,0-1.23-12.35L377.15,175c.64,3.68.64,8,1.23,11.76Z"
          transform="translate(0.65)" fill="#193651"/>
    <path d="M370.94,257.16l11.77,3.69c1.23-3.69,1.87-8,3.1-12.35L374,245.4A65.68,65.68,0,0,1,370.94,257.16Z"
          transform="translate(0.65)" fill="#193651"/>
    <path d="M362.28,280.05,373.4,285c1.87-4.33,3.1-8,5-11.76l-11.77-4.34A90.32,90.32,0,0,1,362.28,280.05Z"
          transform="translate(0.65)" fill="#193651"/>
    <path d="M390.72,198.46H378.38v11.77l12.34.65a14.39,14.39,0,0,0,0-7.44Z" transform="translate(0.65)"
          fill="#193651"/>
    <path d="M371.52,150.88a85.86,85.86,0,0,1,3.11,11.77l11.76-3.1a94.54,94.54,0,0,0-3.1-12.35Z"
          transform="translate(0.65)" fill="#193651"/>
    <path
      d="M375.85,234.34l12.35,1.88c.65-4.33,1.23-8.66,1.88-12.35l-12.35-1.23C377.08,226.26,376.5,230.59,375.85,234.34Z"
      transform="translate(0.65)" fill="#193651"/>
    <path d="M24.76,139.77,13,136.08c-1.22,4.33-1.87,8-3.1,12.35l11.77,3.1C22.88,147.14,24.11,143.45,24.76,139.77Z"
          transform="translate(0.65)" fill="#193651"/>
    <path d="M33.36,117.46l-11.12-5a85.86,85.86,0,0,0-4.91,11.77l11.76,4.33C30.32,124.9,32.13,121.21,33.36,117.46Z"
          transform="translate(0.65)" fill="#193651"/>
    <path d="M24.76,246a83.91,83.91,0,0,1-3.1-11.76L9.31,236.74a96,96,0,0,0,3.1,12.34Z" transform="translate(0.65)"
          fill="#193651"/>
    <path d="M16.68,194.13V186.7l-12.35-.65v13l12.35-.65Z" transform="translate(0.65)" fill="#193651"/>
    <path d="M19.78,163.23,7.43,161.36c-.64,3.68-1.22,8-1.87,12.35l12.35,1.22C18.55,170.67,18.55,166.92,19.78,163.23Z"
          transform="translate(0.65)" fill="#193651"/>
    <path d="M5.56,212a99.87,99.87,0,0,0,1.23,12.35l12.35-1.88c-.65-3.68-.65-8-1.23-11.76Z" transform="translate(0.65)"
          fill="#193651"/>
    <polygon points="24.76 265.83 4.33 259.04 0 270.8 32.19 281.92 43.31 249.79 31.55 245.46 24.76 265.83"
             fill="#193651"/>
  </g>
  <path
    d="M170,246.69v13h55V247.34c0-16.1,4.92-32.13,14.87-44.54a53.34,53.34,0,0,0,11.77-33.36c0-31.55-27.8-57.47-60-53.79-24.76,2.46-45.13,22.89-47.58,48.23-1.23,14.22,2.45,27.8,10.53,38.33A72.19,72.19,0,0,1,170,246.69Z"
    transform="translate(0.65)" fill="#d3d7da"/>
  <path
    d="M251.6,173.12v-3.68c0-31.55-27.79-57.47-60-53.79-24.76,2.46-45.12,22.89-47.58,48.23a22.47,22.47,0,0,0,0,9.24Z"
    transform="translate(0.65)" fill="#fdbf5e"/>
  <path
    d="M203.38,281.92H191.61a16.64,16.64,0,0,1-16.68-16.68v-5.56h44.48v5.56C220.06,274.49,212.69,281.92,203.38,281.92Z"
    transform="translate(0.65)" fill="#2ea2db"/>
</svg>
