<svg xmlns="http://www.w3.org/2000/svg" viewBox="0 0 395.66 395.48">
  <path fill="#4fbf9f" d="M129.23 170.44h137.24v124.25H129.23z"/>
  <path fill="#fff" d="M247.92 294.69v-78.48A27.06 27.06 0 0 1 220.7 189h-47a27.1 27.1 0 0 1-27.22 27.22v78.48z"/>
  <circle cx="197.82" cy="225.45" r="8.66" fill="#193651"/>
  <path fill="#193651" d="M159.48 352.23h12.35v12.35h-12.35zM191.61 352.23h12.35v12.35h-12.35zM223.81 352.23h12.35v12.35h-12.35z"/>
  <path fill="#fdbf5e" d="M6.21 33.2H66.2v135.37H6.21z"/>
  <g fill="#fff">
    <path d="M387.62 109.67a22.33 22.33 0 0 1-27.22 11.12L258.91 87.11a22.41 22.41 0 0 1 6.92 16.36c0 12.34-10.54 22.88-23.47 22.88H178.1a38.35 38.35 0 0 0-8.66 1.23L128 149.24a25.27 25.27 0 0 1-9.24 1.87H66.2V45.41h23.46l118.7-38.33A38.25 38.25 0 0 1 238 9.54l139.7 72.34c10.5 5.55 14.83 17.9 9.92 27.79zM389.43 253.32v135.95H6.21V253.32h123.02v41.37h137.18v-41.37h123.02z"/>
  </g>
  <path fill="#193651" d="M395.64 247.11v148.37H0V247.11h129.23v12.35H12.35v123.67h370.94V259.46H266.41v-12.35h129.23z"/>
  <path fill="#4fbf9f" d="M129.23 170.44h137.24v124.25H129.23z"/>
  <path fill="#4fbf9f" d="M129.23 170.44h137.24v124.25H129.23z"/>
  <path fill="#fff" d="M247.92 294.69v-78.48A27.06 27.06 0 0 1 220.7 189h-47a27.1 27.1 0 0 1-27.22 27.22v78.48z"/>
  <circle cx="197.82" cy="225.45" r="8.66" fill="#193651"/>
  <path fill="#193651" d="M159.48 352.23h12.35v12.35h-12.35zM191.61 352.23h12.35v12.35h-12.35zM223.81 352.23h12.35v12.35h-12.35z"/>
  <path fill="#fdbf5e" d="M6.21 33.2H66.2v135.37H6.21z"/>
  <g fill="#193651">
    <path d="M29.67 129.65h12.99V142H29.67zM29.67 95.06h12.99v12.35H29.67zM29.67 60.41h12.99v12.35H29.67z"/>
    <path d="M380.77 76.51L240.48 4.82a43.27 43.27 0 0 0-34-2.46l-118 37.69H72.34v-13H0v147.72h72.34v-16.68h46.35a39.49 39.49 0 0 0 11.77-1.87l42-21.66a21.33 21.33 0 0 1 6.2-1.23H243c16.09 0 29.67-13 29.67-29a24.09 24.09 0 0 0-.65-6.79l86.5 29a27.63 27.63 0 0 0 34.59-14.23c6.21-12.92.65-28.43-12.34-35.8zM60 40.05v123H12.35V39.4h47.58v.65zm322.07 67.36c-3.68 7.43-11.77 10.54-19.78 8l-102-34c-5-3.1-10.54-5.56-17.33-5.56H189.8a11 11 0 0 1-11.12-11.12h-12.34a23.46 23.46 0 0 0 23.46 23.48h53.79a16.68 16.68 0 0 1 16.68 16.68 16.68 16.68 0 0 1-16.68 16.68h-64.91a29.28 29.28 0 0 0-10.53 1.87l-42 21.66a29.63 29.63 0 0 1-6.79 1.23H73V52.4h17.31l119.86-38.34a34.13 34.13 0 0 1 24.76 1.88l139.7 72.34c7.43 3.03 10.47 12.34 7.43 19.13zM228.33 288.55a30.29 30.29 0 0 0-60.38 0h-76.8v12.35h213.33v-12.35zm-47.51 0c1.22-8.66 8.66-14.87 17.9-14.87a17.36 17.36 0 0 1 17.33 14.87z"/>
  </g>
</svg>
