<svg xmlns="http://www.w3.org/2000/svg" viewBox="0 0 395.66 395.48">
  <title>offer-2</title>
  <rect x="129.23" y="170.44" width="137.24" height="124.25" fill="#4fbf9f"/>
  <path d="M247.92,294.69V216.21A27.06,27.06,0,0,1,220.7,189h-47a27.1,27.1,0,0,1-27.22,27.22v78.48Z" fill="#fff"/>
  <circle cx="197.82" cy="225.45" r="8.66" fill="#193651"/>
  <rect x="159.48" y="352.23" width="12.35" height="12.35" fill="#193651"/>
  <rect x="191.61" y="352.23" width="12.35" height="12.35" fill="#193651"/>
  <rect x="223.81" y="352.23" width="12.35" height="12.35" fill="#193651"/>
  <rect x="6.21" y="33.2" width="59.99" height="135.37" fill="#fdbf5e"/>
  <g>
    <path
      d="M387.62,109.67a22.33,22.33,0,0,1-27.22,11.12L258.91,87.11a22.41,22.41,0,0,1,6.92,16.36c0,12.34-10.54,22.88-23.47,22.88H178.1a38.35,38.35,0,0,0-8.66,1.23L128,149.24a25.27,25.27,0,0,1-9.24,1.87H66.2V45.41H89.66L208.36,7.08A38.25,38.25,0,0,1,238,9.54l139.7,72.34C388.2,87.43,392.53,99.78,387.62,109.67Z"
      fill="#fff"/>
    <polygon
      points="389.43 253.32 389.43 389.27 6.21 389.27 6.21 253.32 129.23 253.32 129.23 294.69 266.41 294.69 266.41 253.32 389.43 253.32"
      fill="#fff"/>
  </g>
  <polygon
    points="395.64 247.11 395.64 395.48 0 395.48 0 247.11 129.23 247.11 129.23 259.46 12.35 259.46 12.35 383.13 383.29 383.13 383.29 259.46 266.41 259.46 266.41 247.11 395.64 247.11"
    fill="#193651"/>
  <rect x="129.23" y="170.44" width="137.24" height="124.25" fill="#4fbf9f"/>
  <rect x="129.23" y="170.44" width="137.24" height="124.25" fill="#4fbf9f"/>
  <path d="M247.92,294.69V216.21A27.06,27.06,0,0,1,220.7,189h-47a27.1,27.1,0,0,1-27.22,27.22v78.48Z" fill="#fff"/>
  <circle cx="197.82" cy="225.45" r="8.66" fill="#193651"/>
  <rect x="159.48" y="352.23" width="12.35" height="12.35" fill="#193651"/>
  <rect x="191.61" y="352.23" width="12.35" height="12.35" fill="#193651"/>
  <rect x="223.81" y="352.23" width="12.35" height="12.35" fill="#193651"/>
  <rect x="6.21" y="33.2" width="59.99" height="135.37" fill="#fdbf5e"/>
  <g>
    <rect x="29.67" y="129.65" width="12.99" height="12.35" fill="#193651"/>
    <rect x="29.67" y="95.06" width="12.99" height="12.35" fill="#193651"/>
    <rect x="29.67" y="60.41" width="12.99" height="12.35" fill="#193651"/>
    <path
      d="M380.77,76.51,240.48,4.82a43.27,43.27,0,0,0-34-2.46l-118,37.69H72.34v-13H0V174.77H72.34V158.09h46.35a39.49,39.49,0,0,0,11.77-1.87l42-21.66a21.33,21.33,0,0,1,6.2-1.23H243c16.09,0,29.67-13,29.67-29a24.09,24.09,0,0,0-.65-6.79l86.5,29a27.63,27.63,0,0,0,34.59-14.23C399.32,99.39,393.76,83.88,380.77,76.51ZM60,40.05v123H12.35V39.4H59.93v.65Zm322.07,67.36c-3.68,7.43-11.77,10.54-19.78,8l-102-34c-5-3.1-10.54-5.56-17.33-5.56H189.8a11,11,0,0,1-11.12-11.12H166.34A23.46,23.46,0,0,0,189.8,88.21h53.79a16.68,16.68,0,0,1,16.68,16.68h0a16.68,16.68,0,0,1-16.68,16.68H178.68a29.28,29.28,0,0,0-10.53,1.87l-42,21.66a29.63,29.63,0,0,1-6.79,1.23H73V52.4H90.31L210.17,14.06a34.13,34.13,0,0,1,24.76,1.88l139.7,72.34C382.06,91.31,385.1,100.62,382.06,107.41Z"
      fill="#193651"/>
    <path
      d="M228.33,288.55a30.29,30.29,0,0,0-60.38,0H91.15V300.9H304.48V288.55Zm-47.51,0c1.22-8.66,8.66-14.87,17.9-14.87a17.36,17.36,0,0,1,17.33,14.87Z"
      fill="#193651"/>
  </g>
</svg>
