<svg xmlns="http://www.w3.org/2000/svg" viewBox="0 0 395.64 395.64">
  <path fill="#193651" d="M395.64 395.64H187.93v-12.35h195.36V12.35H171.25V0h224.39v395.64z"/>
  <path fill="#fff" d="M182.37 147.14a44.34 44.34 0 0 0-44.54-44.55h-86.5a44.29 44.29 0 0 0-44.48 44.55v119.33h27.8v123h119.92V266.41h27.8z"/>
  <path fill="#f16051" d="M58.7 364.74v-123H30.9v-94.6a19.54 19.54 0 0 1 19.78-19.79h87.15a19.54 19.54 0 0 1 19.78 19.79v94.57h-27.8v123z"/>
  <path fill="#193651" d="M137.83 96.45H50.68A50.93 50.93 0 0 0 0 147.14v125.47h27.8v123h132.26v-123h27.8V147.14c.71-27.8-22.17-50.69-50.03-50.69zm38.33 163.82h-27.8v123h-47.58v-91.46H88.44v91.48H40.21v-123h-27.8V147.14a38.55 38.55 0 0 1 38.34-38.34h87.14a38.55 38.55 0 0 1 38.34 38.34v113.13z"/>
  <circle cx="93.93" cy="42.67" r="36.46" fill="#fff"/>
  <g fill="#193651">
    <path d="M93.93 85.33a42.67 42.67 0 1 1 42.67-42.66 42.75 42.75 0 0 1-42.67 42.66zm0-73a30.32 30.32 0 1 0 30.32 30.32 30.36 30.36 0 0 0-30.32-30.3zM51.33 158.25h12.35v12.35H51.33zM87.79 158.25h12.35v12.35H87.79zM124.9 158.25h12.35v12.35H124.9zM325.17 82.81l-21.01-21.59 8.66-8.66 12.35 12.35 30.9-30.26 8.67 8.6-39.57 39.56zM325.17 153.28l-21.01-21.59 8.66-8.67 12.35 13 30.9-30.91 8.67 8.6-39.57 39.57zM325.17 294.85l-21.01-21.59 8.66-8.66 12.35 12.99 30.9-30.96 8.67 8.66-39.57 39.56zM325.17 365.32l-21.01-21.01 8.66-8.67 12.35 12.42 30.9-30.9 8.67 8.59-39.57 39.57zM325.17 224.39l-21.01-21.66 8.66-8.6 12.35 12.35 30.9-30.9 8.67 9.24-39.57 39.57zM212.69 56.24h56.89v12.35h-56.89zM212.69 126.71h56.89v12.35h-56.89zM212.69 197.17h56.89v12.35h-56.89zM212.69 268.28h56.89v12.35h-56.89zM212.69 338.75h56.89v12.35h-56.89z"/>
  </g>
</svg>
