<svg xmlns="http://www.w3.org/2000/svg" viewBox="0 0 395.64 395.64">
  <title>offer-1</title>
  <polygon points="395.64 395.64 187.93 395.64 187.93 383.29 383.29 383.29 383.29 12.35 171.25 12.35 171.25 0 395.64 0 395.64 395.64" fill="#193651"/>
  <path d="M182.37,147.14a44.34,44.34,0,0,0-44.54-44.55H51.33A44.29,44.29,0,0,0,6.85,147.14V266.47h27.8v123H154.57V266.41h27.8Z" fill="#fff"/>
  <path d="M58.7,364.74v-123H30.9V147.14a19.54,19.54,0,0,1,19.78-19.79h87.15a19.54,19.54,0,0,1,19.78,19.79v94.57h-27.8v123Z" fill="#f16051"/>
  <path d="M137.83,96.45H50.68A50.93,50.93,0,0,0,0,147.14V272.61H27.8v123H160.06v-123h27.8V147.14C188.57,119.34,165.69,96.45,137.83,96.45Zm38.33,163.82h-27.8v123H100.78V291.81H88.44v91.48H40.21v-123H12.41V147.14A38.55,38.55,0,0,1,50.75,108.8h87.14a38.55,38.55,0,0,1,38.34,38.34V260.27Z" fill="#193651"/>
  <circle cx="93.93" cy="42.67" r="36.46" fill="#fff"/>
  <g>
    <path d="M93.93,85.33A42.67,42.67,0,1,1,136.6,42.67,42.75,42.75,0,0,1,93.93,85.33Zm0-73a30.32,30.32,0,1,0,30.32,30.32A30.36,30.36,0,0,0,93.93,12.35Z" fill="#193651"/>
    <rect x="51.33" y="158.25" width="12.35" height="12.35" fill="#193651"/>
    <rect x="87.79" y="158.25" width="12.35" height="12.35" fill="#193651"/>
    <rect x="124.9" y="158.25" width="12.35" height="12.35" fill="#193651"/>
    <polygon points="325.17 82.81 304.16 61.22 312.82 52.56 325.17 64.91 356.07 34.65 364.74 43.25 325.17 82.81" fill="#193651"/>
    <polygon points="325.17 153.28 304.16 131.69 312.82 123.02 325.17 136.02 356.07 105.11 364.74 113.71 325.17 153.28" fill="#193651"/>
    <polygon points="325.17 294.85 304.16 273.26 312.82 264.6 325.17 277.59 356.07 246.63 364.74 255.29 325.17 294.85" fill="#193651"/>
    <polygon points="325.17 365.32 304.16 344.31 312.82 335.64 325.17 348.06 356.07 317.16 364.74 325.75 325.17 365.32" fill="#193651"/>
    <polygon points="325.17 224.39 304.16 202.73 312.82 194.13 325.17 206.48 356.07 175.58 364.74 184.82 325.17 224.39" fill="#193651"/>
    <rect x="212.69" y="56.24" width="56.89" height="12.35" fill="#193651"/>
    <rect x="212.69" y="126.71" width="56.89" height="12.35" fill="#193651"/>
    <rect x="212.69" y="197.17" width="56.89" height="12.35" fill="#193651"/>
    <rect x="212.69" y="268.28" width="56.89" height="12.35" fill="#193651"/>
    <rect x="212.69" y="338.75" width="56.89" height="12.35" fill="#193651"/>
  </g>
</svg>
